<svg width="25" height="24" viewBox="0 0 25 24" fill="none" xmlns="http://www.w3.org/2000/svg">
<g id="material-symbols-light:error-outline">
<path id="Vector" d="M12.5 16.462C12.6747 16.462 12.821 16.403 12.939 16.285C13.0563 16.167 13.115 16.0207 13.115 15.846C13.115 15.672 13.056 15.526 12.938 15.408C12.82 15.29 12.674 15.2307 12.5 15.23C12.326 15.2293 12.18 15.2883 12.062 15.407C11.944 15.5257 11.885 15.6717 11.885 15.845C11.885 16.0183 11.944 16.1647 12.062 16.284C12.18 16.4033 12.326 16.4633 12.5 16.462ZM12 13.153H13V7.153H12V13.153ZM12.503 21C11.259 21 10.089 20.764 8.993 20.292C7.89767 19.8193 6.94467 19.178 6.134 18.368C5.32333 17.558 4.68167 16.606 4.209 15.512C3.73633 14.418 3.5 13.2483 3.5 12.003C3.5 10.7577 3.73633 9.58767 4.209 8.493C4.681 7.39767 5.32133 6.44467 6.13 5.634C6.93867 4.82333 7.891 4.18167 8.987 3.709C10.083 3.23633 11.253 3 12.497 3C13.741 3 14.911 3.23633 16.007 3.709C17.1023 4.181 18.0553 4.82167 18.866 5.631C19.6767 6.44033 20.3183 7.39267 20.791 8.488C21.2637 9.58333 21.5 10.753 21.5 11.997C21.5 13.241 21.264 14.411 20.792 15.507C20.32 16.603 19.6787 17.556 18.868 18.366C18.0573 19.176 17.1053 19.8177 16.012 20.291C14.9187 20.7643 13.749 21.0007 12.503 21ZM12.5 20C14.7333 20 16.625 19.225 18.175 17.675C19.725 16.125 20.5 14.2333 20.5 12C20.5 9.76667 19.725 7.875 18.175 6.325C16.625 4.775 14.7333 4 12.5 4C10.2667 4 8.375 4.775 6.825 6.325C5.275 7.875 4.5 9.76667 4.5 12C4.5 14.2333 5.275 16.125 6.825 17.675C8.375 19.225 10.2667 20 12.5 20Z" fill="url(#paint0_linear_8811_3784)"/>
</g>
<defs>
<linearGradient id="paint0_linear_8811_3784" x1="3.5" y1="3" x2="21.5" y2="21" gradientUnits="userSpaceOnUse">
<stop stop-color="#09BD3F"/>
<stop offset="1" stop-color="#09812D"/>
</linearGradient>
</defs>
</svg>
