<svg width="34" height="35" viewBox="0 0 34 35" fill="none" xmlns="http://www.w3.org/2000/svg">
<path d="M33.8619 12.7326C33.7218 12.3038 33.4652 11.9219 33.1206 11.6292C32.7759 11.3365 32.3566 11.1443 31.909 11.0738L23.1369 9.73446L19.2055 1.43589C19.014 1.01348 18.704 0.655015 18.3128 0.403452C17.9216 0.15189 17.4658 0.017911 17 0.0175781C16.0504 0.0175781 15.2046 0.561588 14.7945 1.43346L10.8619 9.73568L2.08978 11.0751C1.64232 11.1459 1.2232 11.3382 0.878619 11.6309C0.534034 11.9236 0.277367 12.3052 0.136908 12.7338C-0.0150411 13.1764 -0.0410831 13.6522 0.0616567 14.1087C0.164396 14.5651 0.391921 14.9844 0.719109 15.3203L7.10258 21.8557L5.59398 31.099C5.43531 32.0728 5.83076 33.0224 6.62778 33.5798C6.99614 33.8385 7.43045 33.9883 7.88067 34.0122C8.3309 34.036 8.77874 33.9329 9.17262 33.7146L16.9792 29.3819L24.8286 33.7146C25.2219 33.9342 25.6697 34.0381 26.1201 34.0142C26.5704 33.9904 27.0046 33.8397 27.3722 33.5798C27.7629 33.3064 28.0675 32.9281 28.2505 32.4891C28.4335 32.0502 28.4875 31.5685 28.406 31.1002L26.8974 21.8569L33.2809 15.3215C33.6081 14.9856 33.8356 14.5663 33.9383 14.1099C34.0411 13.6534 34.015 13.1776 33.8631 12.735L33.8619 12.7326Z" fill="white"/>
</svg>
