<svg width="35" height="47" viewBox="0 0 35 47" fill="none" xmlns="http://www.w3.org/2000/svg">
<path d="M12.1154 0.0175781H14.8077V5.42934H12.1154V0.0175781ZM17.4942 5.57339L21.3011 1.74727L23.2046 3.66033L19.3976 7.48644L17.4942 5.57339ZM3.71332 3.65879L5.61678 1.74574L9.42371 5.57185L7.52024 7.48491L3.71332 3.65879ZM34.2114 25.9556C33.1603 24.8991 31.4562 24.8989 30.4047 25.9548L31.3559 24.9988C32.4073 23.9422 32.4073 22.2289 31.3559 21.1722C30.3047 20.1156 28.6005 20.1154 27.549 21.1714L28.5003 20.2154C29.5517 19.1587 29.5517 17.4454 28.5003 16.3887C27.4492 15.3322 25.745 15.332 24.6936 16.3879L32.3077 8.73539C33.3591 7.67874 33.3591 5.96547 32.3077 4.90873C31.2563 3.8519 29.5516 3.8519 28.5002 4.90873L11.4225 22.1007C11.4225 22.1007 5.83809 12.4065 0.951821 17.3175L0 18.2741L3.17288 21.463C6.15183 24.4569 6.15183 29.3113 3.17288 32.3052L1.90364 33.5808L14.2781 46.0176L17.1338 43.1475L22.0303 41.0385C23.1973 40.5359 24.2581 39.814 25.1558 38.9118L34.2114 29.7823C35.2629 28.7255 35.2629 27.0124 34.2114 25.9556Z" fill="white"/>
</svg>
