<svg width="34" height="41" viewBox="0 0 34 41" fill="none" xmlns="http://www.w3.org/2000/svg">
<path fill-rule="evenodd" clip-rule="evenodd" d="M12.8734 0.98777C14.1547 0.349742 15.5675 0.0175781 17 0.0175781C18.4325 0.0175781 19.8453 0.349742 21.1266 0.98777L31.0469 5.92641C31.9344 6.36849 32.6808 7.04803 33.2024 7.88887C33.7239 8.7297 34.0001 9.69862 34 10.687V25.292C34.0001 26.851 33.6022 28.3843 32.8436 29.7479C32.085 31.1115 30.9907 32.2606 29.6635 33.087L19.8327 39.208C18.9833 39.7371 18.0017 40.0176 17 40.0176C15.9983 40.0176 15.0167 39.7371 14.1673 39.208L4.33646 33.087C3.00934 32.2606 1.91503 31.1115 1.15644 29.7479C0.397846 28.3843 -0.000106614 26.851 5.83989e-08 25.292V10.687C-0.000146631 9.69862 0.276055 8.7297 0.797651 7.88887C1.31925 7.04803 2.06563 6.36849 2.95314 5.92641L12.8734 0.98777ZM23.8583 17.0616C24.0014 16.9287 24.1163 16.7685 24.1959 16.5904C24.2756 16.4124 24.3184 16.2202 24.3218 16.0253C24.3253 15.8304 24.2893 15.6369 24.216 15.4561C24.1427 15.2754 24.0336 15.1112 23.8953 14.9734C23.7569 14.8356 23.5921 14.7269 23.4106 14.6539C23.2292 14.5809 23.0349 14.5451 22.8392 14.5485C22.6436 14.552 22.4506 14.5946 22.2719 14.674C22.0931 14.7533 21.9323 14.8677 21.7989 15.0103L15.0571 21.7254L12.2011 18.8807C11.9249 18.6243 11.5596 18.4847 11.1821 18.4914C10.8046 18.498 10.4444 18.6503 10.1774 18.9162C9.91045 19.1822 9.75752 19.5409 9.75086 19.9169C9.7442 20.2929 9.88433 20.6568 10.1417 20.932L14.0274 24.8024C14.3006 25.0742 14.671 25.2269 15.0571 25.2269C15.4433 25.2269 15.8136 25.0742 16.0869 24.8024L23.8583 17.0616Z" fill="white"/>
</svg>
