<svg width="44" height="18" viewBox="0 0 44 18" fill="none" xmlns="http://www.w3.org/2000/svg">
<path fill-rule="evenodd" clip-rule="evenodd" d="M43.3325 9.24995C43.3325 6.23577 41.8725 3.85738 39.0821 3.85738C36.2798 3.85738 34.5843 6.23577 34.5843 9.22644C34.5843 12.7705 36.5859 14.5601 39.4588 14.5601C40.8599 14.5601 41.9197 14.2423 42.7203 13.7948V11.4399C41.9196 11.8403 41.0012 12.0875 39.8356 12.0875C38.6935 12.0875 37.6808 11.6872 37.5514 10.2978H43.3089C43.309 10.1448 43.3325 9.53249 43.3325 9.24995ZM37.5161 8.13137C37.5161 6.80086 38.3286 6.24744 39.0703 6.24744C39.7885 6.24744 40.5539 6.80086 40.5539 8.13137H37.5161ZM30.0394 3.85738C28.8856 3.85738 28.1438 4.39895 27.7317 4.77579L27.5786 4.04579H24.9883V17.7746L27.9318 17.1506L27.9436 13.8185C28.3674 14.1246 28.9915 14.5602 30.0276 14.5602C32.1352 14.5602 34.0544 12.8647 34.0544 9.13231C34.0427 5.71771 32.0999 3.85738 30.0394 3.85738ZM29.333 11.9698C28.6382 11.9698 28.2262 11.7225 27.9436 11.4164L27.9318 7.04813C28.238 6.70665 28.6618 6.47121 29.333 6.47121C30.4044 6.47121 31.1462 7.67216 31.1462 9.2146C31.1463 10.7924 30.4162 11.9698 29.333 11.9698ZM20.938 3.16265L23.8933 2.52687V0.136719L20.938 0.760748V3.16265ZM20.938 4.05747H23.8933V14.3599H20.938V4.05747ZM17.7707 4.92877L17.5823 4.05747H15.0391V14.3599H17.9827V7.37778C18.6773 6.47113 19.8547 6.63603 20.2197 6.76551V4.05747C19.843 3.91624 18.4654 3.6572 17.7707 4.92877ZM11.8836 1.50249L9.01066 2.11477L8.9989 11.5459C8.9989 13.2885 10.3058 14.5719 12.0484 14.5719C13.0139 14.5719 13.7203 14.3952 14.1089 14.1833V11.7932C13.7322 11.9462 11.8718 12.4878 11.8718 10.7453V6.56542H14.1089V4.05755H11.8718L11.8836 1.50249ZM3.92422 7.04813C3.92422 6.58893 4.30097 6.41235 4.925 6.41235C5.81982 6.41235 6.95015 6.68314 7.84505 7.16594V4.39895C6.86778 4.01045 5.90227 3.85738 4.925 3.85738C2.53485 3.85738 0.945312 5.10543 0.945312 7.18945C0.945312 10.4391 5.41956 9.92108 5.41956 11.3222C5.41956 11.8639 4.9486 12.0404 4.28922 12.0404C3.31195 12.0404 2.06389 11.6401 1.07487 11.0985V13.9008C2.16986 14.3717 3.27668 14.5719 4.28922 14.5719C6.73823 14.5719 8.42198 13.3591 8.42198 11.2516C8.41022 7.74286 3.92422 8.36689 3.92422 7.04813Z" fill="#635BFF"/>
</svg>
